# xmcd
#
# Track frame offsets: 
#        150
#        12808
#        25056
#        39640
#        53507
#        64795
#        83430
#        96194
#        112792
#
# Disc length: 1744 seconds
#
# Revision: 0
# Processed by: cddbd v1.5.2PL0 Copyright (c) Steve Scherf et al.
# Submitted via: ExactAudioCopy v1.0b3
#
DISCID=5a06ce09
DTITLE=Dan and Sallylu - Takin Te High Road
DYEAR=1900
DGENRE=Folk/Rock
TTITLE0=Seven Spnish Angels
TTITLE1=Lodi
TTITLE2=Here Comes The Sun
TTITLE3=Doesn't Matter Anymore
TTITLE4=Country Roads
TTITLE5=Your Song
TTITLE6=Homeard Bound
TTITLE7=Wihita Lineman
TTITLE8=Amerian Girl
EXTD=
EXTT0=
EXTT1=
EXTT2=
EXTT3=
EXTT4=
EXTT5=
EXTT6=
EXTT7=
EXTT8=
PLAYORDER=
